<mxfile host="app.diagrams.net" modified="2020-10-19T08:55:39.827Z" agent="5.0 (Windows NT 10.0; Win64; x64) AppleWebKit/537.36 (KHTML, like Gecko) Chrome/86.0.4240.75 Safari/537.36" etag="b5cLbItHkDrKnPjVMjvz" version="13.8.0" type="github">
  <diagram id="C5RBs43oDa-KdzZeNtuy" name="Page-1">
    <mxGraphModel dx="868" dy="450" grid="1" gridSize="10" guides="1" tooltips="1" connect="1" arrows="1" fold="1" page="1" pageScale="1" pageWidth="827" pageHeight="1169" math="0" shadow="0">
      <root>
        <mxCell id="WIyWlLk6GJQsqaUBKTNV-0" />
        <mxCell id="WIyWlLk6GJQsqaUBKTNV-1" parent="WIyWlLk6GJQsqaUBKTNV-0" />
        <mxCell id="WIyWlLk6GJQsqaUBKTNV-2" value="" style="rounded=0;html=1;jettySize=auto;orthogonalLoop=1;fontSize=11;endArrow=block;endFill=0;endSize=8;strokeWidth=1;shadow=0;labelBackgroundColor=none;edgeStyle=orthogonalEdgeStyle;entryX=0.5;entryY=0;entryDx=0;entryDy=0;" parent="WIyWlLk6GJQsqaUBKTNV-1" source="nmb83Mv5JrrBnlL4vDk_-3" target="nmb83Mv5JrrBnlL4vDk_-7" edge="1">
          <mxGeometry relative="1" as="geometry">
            <mxPoint x="90" y="350" as="targetPoint" />
          </mxGeometry>
        </mxCell>
        <mxCell id="WIyWlLk6GJQsqaUBKTNV-3" value="New lead" style="rounded=1;whiteSpace=wrap;html=1;fontSize=12;glass=0;strokeWidth=1;shadow=0;" parent="WIyWlLk6GJQsqaUBKTNV-1" vertex="1">
          <mxGeometry x="30" y="20" width="120" height="40" as="geometry" />
        </mxCell>
        <mxCell id="nmb83Mv5JrrBnlL4vDk_-0" value="amount" style="shape=parallelogram;perimeter=parallelogramPerimeter;whiteSpace=wrap;html=1;fixedSize=1;" vertex="1" parent="WIyWlLk6GJQsqaUBKTNV-1">
          <mxGeometry x="30" y="120" width="120" height="60" as="geometry" />
        </mxCell>
        <mxCell id="nmb83Mv5JrrBnlL4vDk_-1" value="" style="rounded=0;html=1;jettySize=auto;orthogonalLoop=1;fontSize=11;endArrow=block;endFill=0;endSize=8;strokeWidth=1;shadow=0;labelBackgroundColor=none;edgeStyle=orthogonalEdgeStyle;" edge="1" parent="WIyWlLk6GJQsqaUBKTNV-1" source="WIyWlLk6GJQsqaUBKTNV-3" target="nmb83Mv5JrrBnlL4vDk_-0">
          <mxGeometry relative="1" as="geometry">
            <mxPoint x="90" y="60" as="sourcePoint" />
            <mxPoint x="120" y="180" as="targetPoint" />
          </mxGeometry>
        </mxCell>
        <mxCell id="nmb83Mv5JrrBnlL4vDk_-3" value="save to finance table&lt;br&gt;" style="rounded=0;whiteSpace=wrap;html=1;" vertex="1" parent="WIyWlLk6GJQsqaUBKTNV-1">
          <mxGeometry x="30" y="240" width="120" height="60" as="geometry" />
        </mxCell>
        <mxCell id="nmb83Mv5JrrBnlL4vDk_-4" value="" style="rounded=0;html=1;jettySize=auto;orthogonalLoop=1;fontSize=11;endArrow=block;endFill=0;endSize=8;strokeWidth=1;shadow=0;labelBackgroundColor=none;edgeStyle=orthogonalEdgeStyle;" edge="1" parent="WIyWlLk6GJQsqaUBKTNV-1" source="nmb83Mv5JrrBnlL4vDk_-0" target="nmb83Mv5JrrBnlL4vDk_-3">
          <mxGeometry relative="1" as="geometry">
            <mxPoint x="90" y="180" as="sourcePoint" />
            <mxPoint x="90" y="290" as="targetPoint" />
          </mxGeometry>
        </mxCell>
        <mxCell id="nmb83Mv5JrrBnlL4vDk_-7" value="exit&lt;br&gt;" style="ellipse;whiteSpace=wrap;html=1;" vertex="1" parent="WIyWlLk6GJQsqaUBKTNV-1">
          <mxGeometry x="53.75" y="390" width="72.5" height="30" as="geometry" />
        </mxCell>
        <mxCell id="nmb83Mv5JrrBnlL4vDk_-12" value="" style="edgeStyle=orthogonalEdgeStyle;rounded=0;orthogonalLoop=1;jettySize=auto;html=1;" edge="1" parent="WIyWlLk6GJQsqaUBKTNV-1" source="nmb83Mv5JrrBnlL4vDk_-30" target="nmb83Mv5JrrBnlL4vDk_-10">
          <mxGeometry relative="1" as="geometry" />
        </mxCell>
        <mxCell id="nmb83Mv5JrrBnlL4vDk_-8" value="start&lt;br&gt;" style="ellipse;whiteSpace=wrap;html=1;" vertex="1" parent="WIyWlLk6GJQsqaUBKTNV-1">
          <mxGeometry x="580" y="10" width="70" height="40" as="geometry" />
        </mxCell>
        <mxCell id="nmb83Mv5JrrBnlL4vDk_-14" value="" style="edgeStyle=orthogonalEdgeStyle;rounded=0;orthogonalLoop=1;jettySize=auto;html=1;" edge="1" parent="WIyWlLk6GJQsqaUBKTNV-1" source="nmb83Mv5JrrBnlL4vDk_-10" target="nmb83Mv5JrrBnlL4vDk_-13">
          <mxGeometry relative="1" as="geometry" />
        </mxCell>
        <mxCell id="nmb83Mv5JrrBnlL4vDk_-10" value="refund lead" style="shape=parallelogram;perimeter=parallelogramPerimeter;whiteSpace=wrap;html=1;fixedSize=1;" vertex="1" parent="WIyWlLk6GJQsqaUBKTNV-1">
          <mxGeometry x="567.5" y="170" width="95" height="30" as="geometry" />
        </mxCell>
        <mxCell id="nmb83Mv5JrrBnlL4vDk_-20" value="" style="edgeStyle=orthogonalEdgeStyle;rounded=0;orthogonalLoop=1;jettySize=auto;html=1;" edge="1" parent="WIyWlLk6GJQsqaUBKTNV-1" source="nmb83Mv5JrrBnlL4vDk_-13" target="nmb83Mv5JrrBnlL4vDk_-15">
          <mxGeometry relative="1" as="geometry" />
        </mxCell>
        <mxCell id="nmb83Mv5JrrBnlL4vDk_-23" value="" style="edgeStyle=orthogonalEdgeStyle;rounded=0;orthogonalLoop=1;jettySize=auto;html=1;" edge="1" parent="WIyWlLk6GJQsqaUBKTNV-1" source="nmb83Mv5JrrBnlL4vDk_-13" target="nmb83Mv5JrrBnlL4vDk_-22">
          <mxGeometry relative="1" as="geometry" />
        </mxCell>
        <mxCell id="nmb83Mv5JrrBnlL4vDk_-13" value="check in finance table&lt;br&gt;if paid?" style="rhombus;whiteSpace=wrap;html=1;" vertex="1" parent="WIyWlLk6GJQsqaUBKTNV-1">
          <mxGeometry x="557.5" y="300" width="115" height="110" as="geometry" />
        </mxCell>
        <mxCell id="nmb83Mv5JrrBnlL4vDk_-25" value="" style="edgeStyle=orthogonalEdgeStyle;rounded=0;orthogonalLoop=1;jettySize=auto;html=1;" edge="1" parent="WIyWlLk6GJQsqaUBKTNV-1" source="nmb83Mv5JrrBnlL4vDk_-15" target="nmb83Mv5JrrBnlL4vDk_-24">
          <mxGeometry relative="1" as="geometry" />
        </mxCell>
        <mxCell id="nmb83Mv5JrrBnlL4vDk_-15" value="cancel that finance row" style="rounded=0;whiteSpace=wrap;html=1;" vertex="1" parent="WIyWlLk6GJQsqaUBKTNV-1">
          <mxGeometry x="555" y="490" width="120" height="60" as="geometry" />
        </mxCell>
        <mxCell id="nmb83Mv5JrrBnlL4vDk_-21" value="Yes" style="text;html=1;strokeColor=none;fillColor=none;align=center;verticalAlign=middle;whiteSpace=wrap;rounded=0;" vertex="1" parent="WIyWlLk6GJQsqaUBKTNV-1">
          <mxGeometry x="610" y="430" width="40" height="20" as="geometry" />
        </mxCell>
        <mxCell id="nmb83Mv5JrrBnlL4vDk_-27" style="edgeStyle=orthogonalEdgeStyle;rounded=0;orthogonalLoop=1;jettySize=auto;html=1;entryX=0;entryY=0.5;entryDx=0;entryDy=0;" edge="1" parent="WIyWlLk6GJQsqaUBKTNV-1" source="nmb83Mv5JrrBnlL4vDk_-22" target="nmb83Mv5JrrBnlL4vDk_-24">
          <mxGeometry relative="1" as="geometry">
            <Array as="points">
              <mxPoint x="300" y="655" />
            </Array>
          </mxGeometry>
        </mxCell>
        <mxCell id="nmb83Mv5JrrBnlL4vDk_-22" value="create new finance row with type refund, amount and client id" style="rounded=0;whiteSpace=wrap;html=1;" vertex="1" parent="WIyWlLk6GJQsqaUBKTNV-1">
          <mxGeometry x="240" y="325" width="120" height="60" as="geometry" />
        </mxCell>
        <mxCell id="nmb83Mv5JrrBnlL4vDk_-24" value="stop" style="ellipse;whiteSpace=wrap;html=1;" vertex="1" parent="WIyWlLk6GJQsqaUBKTNV-1">
          <mxGeometry x="565" y="630" width="100" height="50" as="geometry" />
        </mxCell>
        <mxCell id="nmb83Mv5JrrBnlL4vDk_-28" value="No" style="text;html=1;strokeColor=none;fillColor=none;align=center;verticalAlign=middle;whiteSpace=wrap;rounded=0;" vertex="1" parent="WIyWlLk6GJQsqaUBKTNV-1">
          <mxGeometry x="450" y="325" width="40" height="20" as="geometry" />
        </mxCell>
        <mxCell id="nmb83Mv5JrrBnlL4vDk_-30" value="select a lead to be refunded" style="rounded=0;whiteSpace=wrap;html=1;" vertex="1" parent="WIyWlLk6GJQsqaUBKTNV-1">
          <mxGeometry x="557.5" y="90" width="115" height="30" as="geometry" />
        </mxCell>
        <mxCell id="nmb83Mv5JrrBnlL4vDk_-31" value="" style="edgeStyle=orthogonalEdgeStyle;rounded=0;orthogonalLoop=1;jettySize=auto;html=1;" edge="1" parent="WIyWlLk6GJQsqaUBKTNV-1" source="nmb83Mv5JrrBnlL4vDk_-8" target="nmb83Mv5JrrBnlL4vDk_-30">
          <mxGeometry relative="1" as="geometry">
            <mxPoint x="615" y="50" as="sourcePoint" />
            <mxPoint x="615" y="130" as="targetPoint" />
          </mxGeometry>
        </mxCell>
      </root>
    </mxGraphModel>
  </diagram>
</mxfile>
